<?xml version="1.0" standalone="no"?><!DOCTYPE svg PUBLIC "-//W3C//DTD SVG 1.1//EN" "http://www.w3.org/Graphics/SVG/1.1/DTD/svg11.dtd"><svg t="1710402505847" class="icon" viewBox="0 0 1024 1024" version="1.1" xmlns="http://www.w3.org/2000/svg" p-id="990" xmlns:xlink="http://www.w3.org/1999/xlink" width="200" height="200"><path d="M512 1019.076923c280.054154 0 507.076923-227.022769 507.076923-507.076923S792.054154 4.923077 512 4.923077 4.923077 231.945846 4.923077 512s227.022769 507.076923 507.076923 507.076923z m0-49.230769C259.140923 969.846154 54.153846 764.859077 54.153846 512S259.140923 54.153846 512 54.153846 969.846154 259.140923 969.846154 512 764.859077 969.846154 512 969.846154z" fill="#ffffff" p-id="991"></path><path d="M464.945231 748.642462c15.399385 3.042462 31.133538 4.588308 47.054769 4.588307 133.228308 0 241.230769-108.002462 241.230769-241.230769S645.228308 270.769231 512 270.769231 270.769231 378.771692 270.769231 512c0 15.921231 1.545846 31.655385 4.588307 47.054769a24.615385 24.615385 0 0 0 48.295385-9.550769A193.053538 193.053538 0 0 1 320 512c0-106.043077 85.956923-192 192-192S704 405.956923 704 512 618.043077 704 512 704c-12.701538 0-25.245538-1.230769-37.494154-3.652923a24.615385 24.615385 0 1 0-9.550769 48.295385z" fill="#ffffff" p-id="992"></path><path d="M512 512m-78.769231 0a78.769231 78.769231 0 1 0 157.538462 0 78.769231 78.769231 0 1 0-157.538462 0Z" fill="#ffffff" p-id="993"></path><path d="M510.385231 498.294154C396.465231 543.123692 320 653.351385 320 777.846154a24.615385 24.615385 0 1 0 49.230769 0 251.145846 251.145846 0 0 1 159.182769-233.737846 24.615385 24.615385 0 0 0-18.018461-45.814154z" fill="#ffffff" p-id="994"></path></svg>