<?xml version="1.0" standalone="no"?><!DOCTYPE svg PUBLIC "-//W3C//DTD SVG 1.1//EN" "http://www.w3.org/Graphics/SVG/1.1/DTD/svg11.dtd"><svg t="1713767017143" class="icon" viewBox="0 0 1024 1024" version="1.1" xmlns="http://www.w3.org/2000/svg" p-id="5118" xmlns:xlink="http://www.w3.org/1999/xlink" width="200" height="200"><path d="M877.354667 252.117333l-367.317334-163.242666a40.832 40.832 0 0 0-33.152 0L109.568 252.117333a40.832 40.832 0 0 0 0 74.581334l367.36 163.242666c10.538667 4.693333 22.570667 4.693333 33.109333 0l367.317334-163.242666a40.832 40.832 0 0 0 0-74.581334z" fill="#ffffff" p-id="5119"></path><path d="M493.482667 697.514667a40.832 40.832 0 0 1-16.554667-3.498667l-367.36-163.285333a40.832 40.832 0 1 1 33.194667-74.581334l350.72 155.904 350.72-155.904a40.832 40.832 0 0 1 33.152 74.624l-367.317334 163.242667a40.832 40.832 0 0 1-16.554666 3.498667z" fill="#ffffff" p-id="5120"></path><path d="M493.482667 901.546667a40.832 40.832 0 0 1-16.554667-3.498667l-367.36-163.242667a40.832 40.832 0 1 1 33.194667-74.581333l350.72 155.861333 350.72-155.861333a40.832 40.832 0 0 1 33.152 74.581333l-367.317334 163.285334a40.832 40.832 0 0 1-16.554666 3.456z" fill="#ffffff" p-id="5121"></path></svg>