<?xml version="1.0" standalone="no"?><!DOCTYPE svg PUBLIC "-//W3C//DTD SVG 1.1//EN" "http://www.w3.org/Graphics/SVG/1.1/DTD/svg11.dtd"><svg t="1710725415682" class="icon" viewBox="0 0 1024 1024" version="1.1" xmlns="http://www.w3.org/2000/svg" p-id="5134" xmlns:xlink="http://www.w3.org/1999/xlink" width="200" height="200"><path d="M842.80832 30.72c26.53696 0 48.07168 21.56032 48.07168 48.128v180.81792l-96.14336 96.256V126.976H121.74336v770.048h672.99328v-132.736l96.14336-96.256V945.152c0 26.56768-21.53472 48.128-48.07168 48.128H73.6768C47.13472 993.28 25.6 971.71968 25.6 945.152V78.848C25.6 52.28032 47.13472 30.72 73.67168 30.72H842.8032z" fill="#ffffff" p-id="5135"></path><path d="M991.16032 433.37728L625.89952 798.72 568.32 798.63808a10.24 10.24 0 0 1-10.22464-10.25536l0.08192-57.3952 365.2608-365.34784a10.24 10.24 0 0 1 14.48448 0l53.23776 53.25312c3.9936 3.99872 3.9936 10.48064 0 14.48448zM506.88 532.48v56.32a20.48 20.48 0 0 1-20.48 20.48H286.72a20.48 20.48 0 0 1-20.48-20.48v-56.32a20.48 20.48 0 0 1 20.48-20.48h199.68a20.48 20.48 0 0 1 20.48 20.48zM650.24 337.92v56.32a20.48 20.48 0 0 1-20.48 20.48H286.72a20.48 20.48 0 0 1-20.48-20.48V337.92a20.48 20.48 0 0 1 20.48-20.48h343.04a20.48 20.48 0 0 1 20.48 20.48z" fill="#ffffff" p-id="5136"></path></svg>